# xmcd
#
# Track frame offsets:
#       150
#       18429
#       32344
#       45990
#       74855
#       91600
#       104361
#       116074
#       130098
#       159211
#       176102
#       187420
#       195376
#       208510
#       240617
#       262243
#       278333
#       311644
#
# Disc length: 4353 seconds
#
# Revision: 1
# Processed by: cddbd v1.5.2PL0 Copyright (c) Steve Scherf et al.
# Submitted via: FreeDbEdit v0.1
#
DISCID=f810ff12
DTITLE=Various Artist - Jazz Greats, The Essencial Masterpieces - Trilogy (dis
DTITLE=c 1)
DYEAR=2007
DGENRE=Jazz
TTITLE0=Nina Simone - I Loves You, Porgy
TTITLE1=Billie Holiday - The Man I Love
TTITLE2=Sarah Vaughan - Misty
TTITLE3=Chet Baker - Deep in a Dream
TTITLE4=Miles Davis and Charlie Parker - Embraceable You
TTITLE5=Kay Starr - Stars Fell on Alabama
TTITLE6=Lena Horne - Night and Day
TTITLE7=Ella Fitzgerald and Louis Armstrong - Dream a Little Dream of Me
TTITLE8=Carmen McRae - My Foolish Heart
TTITLE9=Ella Fitzgerald - Someone to Watch Over Me
TTITLE10=Dinah Washington - Our Love Is Here to Stay
TTITLE11=Mel Torme - Love or Leave Me
TTITLE12=Count Basie - Summertime
TTITLE13=Stan Getz - Autumn Leaves
TTITLE14=Lester Young - Stardust
TTITLE15=Art Pepper - Round Midnight
TTITLE16=Wes Montgomery - Body and Soul
TTITLE17=Artie Shaw - Beguin the Beguine
EXTD=YEAR: 2007
EXTT0=
EXTT1=
EXTT2=
EXTT3=
EXTT4=
EXTT5=
EXTT6=
EXTT7=
EXTT8=
EXTT9=
EXTT10=
EXTT11=
EXTT12=
EXTT13=
EXTT14=
EXTT15=
EXTT16=
EXTT17=
PLAYORDER=
